<svg width="157" height="42" viewBox="0 0 157 42" fill="none" xmlns="http://www.w3.org/2000/svg">
<path d="M15.293 26.4258H8.75781V41H0.554688V1.1875H15.3477C20.0508 1.1875 23.6784 2.23568 26.2305 4.33203C28.7826 6.42839 30.0586 9.39062 30.0586 13.2188C30.0586 15.9349 29.4661 18.2044 28.2812 20.0273C27.1146 21.832 25.3372 23.2721 22.9492 24.3477L31.5625 40.6172V41H22.7578L15.293 26.4258ZM8.75781 19.7812H15.375C17.4349 19.7812 19.0299 19.2617 20.1602 18.2227C21.2904 17.1654 21.8555 15.7161 21.8555 13.875C21.8555 11.9974 21.3177 10.5208 20.2422 9.44531C19.1849 8.36979 17.5534 7.83203 15.3477 7.83203H8.75781V19.7812ZM45.043 41H36.8398V1.1875H45.043V41ZM85.375 21.9961C85.375 25.9154 84.6823 29.3516 83.2969 32.3047C81.9115 35.2578 79.9245 37.5365 77.3359 39.1406C74.7656 40.7448 71.8125 41.5469 68.4766 41.5469C65.1771 41.5469 62.2331 40.7539 59.6445 39.168C57.056 37.582 55.0508 35.3216 53.6289 32.3867C52.207 29.4336 51.487 26.043 51.4688 22.2148V20.2461C51.4688 16.3268 52.1706 12.8815 53.5742 9.91016C54.9961 6.92057 56.9922 4.63281 59.5625 3.04688C62.151 1.44271 65.1042 0.640625 68.4219 0.640625C71.7396 0.640625 74.6836 1.44271 77.2539 3.04688C79.8424 4.63281 81.8385 6.92057 83.2422 9.91016C84.6641 12.8815 85.375 16.3177 85.375 20.2188V21.9961ZM77.0625 20.1914C77.0625 16.0169 76.3151 12.8451 74.8203 10.6758C73.3255 8.50651 71.1927 7.42188 68.4219 7.42188C65.6693 7.42188 63.5456 8.4974 62.0508 10.6484C60.556 12.7812 59.7995 15.9167 59.7812 20.0547V21.9961C59.7812 26.0612 60.5286 29.2148 62.0234 31.457C63.5182 33.6992 65.6693 34.8203 68.4766 34.8203C71.2292 34.8203 73.3438 33.7448 74.8203 31.5938C76.2969 29.4245 77.0443 26.2708 77.0625 22.1328V20.1914ZM121.305 7.83203H109.109V41H100.906V7.83203H88.875V1.1875H121.305V7.83203ZM156.414 7.83203H144.219V41H136.016V7.83203H123.984V1.1875H156.414V7.83203Z" fill="#006D77"/>
</svg>
